<svg width="773" height="599" viewBox="0 0 773 599" fill="none" xmlns="http://www.w3.org/2000/svg">
<g clip-path="url(#clip0_49_209)">
<path d="M714.271 598.897C723.688 598.897 733.008 596.988 741.668 593.285C750.328 589.582 758.149 584.162 764.659 577.352C771.169 570.542 776.233 562.482 779.546 553.66C782.859 544.838 784.352 535.435 783.936 526.02C781.642 474.088 745.901 386.115 692.275 332.444C582.179 222.267 628.453 19.0907 494.51 2.74028C250.518 -27.0385 330.674 193.225 142.366 311.001C41.1013 374.336 0.00664335 457.646 0 529.218C0.0173185 547.711 7.37281 565.44 20.449 578.507C33.5252 591.574 51.2515 598.908 69.7298 598.897H714.271Z" fill="#F3F5FD"/>
<path d="M583.951 293.409C561.862 390.8 541.86 488.846 526.075 587.471L548.264 592.039C572.657 495.188 592.949 397.2 611.063 298.991L583.951 293.409Z" fill="#E98862"/>
<path d="M629.615 299.442C627.587 396.196 627.733 493.166 632.13 589.855H654.782C659.177 493.167 659.322 396.195 657.296 299.442H629.615Z" fill="#E98862"/>
<path d="M602.821 598.793C602.196 598.79 601.578 598.658 601.006 598.405C600.434 598.153 599.92 597.785 599.496 597.324C599.073 596.864 598.749 596.321 598.544 595.73C598.34 595.138 598.26 594.511 598.308 593.887C598.376 593.022 598.688 592.195 599.21 591.502C599.732 590.809 600.44 590.28 601.252 589.976L628.315 580.904C628.84 580.73 629.395 580.672 629.944 580.733C630.494 580.795 631.023 580.974 631.496 581.259C635.217 583.842 639.667 585.163 644.193 585.026C647.719 584.776 651.103 583.538 653.96 581.455C654.211 581.249 654.515 581.119 654.837 581.08C655.16 581.04 655.486 581.093 655.779 581.233C656.073 581.372 656.32 581.592 656.493 581.867C656.667 582.142 656.758 582.46 656.758 582.785V596.029C656.758 596.42 656.681 596.807 656.531 597.168C656.381 597.528 656.161 597.856 655.885 598.132C655.608 598.407 655.28 598.626 654.919 598.774C654.558 598.923 654.171 598.998 653.78 598.997L602.821 598.793Z" fill="#C1D8ED"/>
<path d="M499.038 598.793C498.412 598.79 497.794 598.658 497.222 598.405C496.65 598.153 496.136 597.785 495.712 597.324C495.289 596.864 494.965 596.321 494.76 595.73C494.555 595.138 494.475 594.511 494.524 593.887C494.591 593.022 494.904 592.195 495.426 591.502C495.947 590.809 496.656 590.28 497.468 589.976L524.532 580.904C525.056 580.73 525.611 580.672 526.16 580.733C526.709 580.795 527.238 580.974 527.711 581.259C531.432 583.842 535.883 585.163 540.409 585.026C543.935 584.776 547.319 583.538 550.175 581.455C550.426 581.249 550.731 581.118 551.053 581.079C551.375 581.039 551.702 581.092 551.996 581.232C552.289 581.371 552.537 581.591 552.71 581.866C552.883 582.141 552.975 582.46 552.974 582.785V596.029C552.974 596.42 552.897 596.807 552.747 597.168C552.597 597.528 552.378 597.856 552.101 598.132C551.825 598.407 551.496 598.626 551.135 598.774C550.774 598.923 550.387 598.998 549.997 598.997L499.038 598.793Z" fill="#C1D8ED"/>
<path d="M671.329 257.671C671.329 257.671 683.906 314.043 683.906 361.452C683.906 408.861 698.348 482.285 698.348 482.285C698.348 482.285 657.417 475.659 629.65 482.285C581.809 493.699 538.912 468.841 538.912 468.841L587.094 262.875L671.329 257.671Z" fill="black"/>
<path d="M579.883 93.4695C579.551 97.5363 583.786 101.321 584.484 105.153C585.205 109.117 582.617 114.153 584.306 117.71C586.019 121.318 591.572 122.489 594.141 125.512C596.71 128.535 596.969 134.21 600.25 136.483C603.486 138.723 608.868 136.978 612.661 138.33C616.327 139.636 619.378 144.425 623.441 144.757C627.505 145.089 631.286 140.851 635.115 140.153C639.075 139.43 644.108 142.021 647.662 140.331C651.267 138.616 652.436 133.058 655.458 130.488C658.479 127.917 664.148 127.657 666.419 124.373C668.659 121.135 666.914 115.748 668.265 111.952C669.571 108.283 674.355 105.23 674.687 101.163C675.019 97.0964 670.785 93.3122 670.088 89.4802C669.366 85.5165 671.953 80.48 670.265 76.9229C668.552 73.316 662.998 72.1447 660.43 69.1206C657.863 66.0965 657.603 60.4229 654.321 58.1501C651.085 55.9095 645.702 57.6548 641.91 56.3029C638.244 54.9964 635.193 50.2082 631.13 49.8757C627.066 49.5433 623.285 53.7808 619.456 54.48C615.495 55.2025 610.463 52.6117 606.909 54.3016C603.304 56.0159 602.134 61.5742 599.113 64.144C596.093 66.7137 590.423 66.9741 588.152 70.2586C585.913 73.4966 587.657 78.8843 586.307 82.6808C585 86.3498 580.213 89.4038 579.883 93.4695Z" fill="#0F1011"/>
<path d="M642.002 137.662C639.809 133.949 637.462 126.758 638.547 113.405L620.854 110.136C620.854 110.136 622.847 130.969 613.978 137.662H642.002Z" fill="#E98862"/>
<path opacity="0.15" d="M617.539 133.331L632.226 122.067L620.684 121.956C620.353 125.911 619.286 129.769 617.539 133.331Z" fill="black"/>
<path d="M648.575 104.35C647.357 111.431 643.503 118.138 637.266 120.43C630.467 123.138 623.11 124.14 615.836 123.348C596.469 121.776 600.26 77.7041 609.446 69.1372C618.631 60.5703 645.62 65.9657 648.915 80.2794C650.619 87.6828 649.736 97.6117 648.575 104.35Z" fill="#E98862"/>
<path d="M620.868 98.9226C621.754 98.9226 622.473 98.2037 622.473 97.3169C622.473 96.4301 621.754 95.7112 620.868 95.7112C619.982 95.7112 619.264 96.4301 619.264 97.3169C619.264 98.2037 619.982 98.9226 620.868 98.9226Z" fill="#0F1011"/>
<path d="M608.21 97.8954C609.096 97.8954 609.815 97.1765 609.815 96.2897C609.815 95.4029 609.096 94.684 608.21 94.684C607.324 94.684 606.606 95.4029 606.606 96.2897C606.606 97.1765 607.324 97.8954 608.21 97.8954Z" fill="#0F1011"/>
<path d="M605.431 92.87H605.441L609.691 92.8135C609.891 92.8122 610.082 92.7314 610.222 92.5889C610.363 92.4465 610.441 92.254 610.44 92.0539C610.438 91.8537 610.358 91.6623 610.215 91.5217C610.073 91.3811 609.881 91.3029 609.681 91.3042H609.671L605.421 91.3618C605.226 91.3705 605.042 91.4544 604.908 91.5959C604.774 91.7374 604.699 91.9255 604.701 92.1207C604.702 92.3159 604.779 92.503 604.915 92.6428C605.051 92.7825 605.236 92.8639 605.431 92.87Z" fill="#0F1011"/>
<path d="M624.328 94.4048C624.513 94.4055 624.692 94.3379 624.831 94.215C624.97 94.092 625.058 93.9224 625.08 93.7383C625.101 93.5542 625.055 93.3686 624.948 93.2168C624.842 93.0651 624.683 92.9578 624.503 92.9155L620.311 91.9104C620.12 91.8716 619.92 91.9087 619.756 92.014C619.591 92.1193 619.473 92.2845 619.428 92.4748C619.383 92.6651 619.413 92.8656 619.512 93.034C619.612 93.2024 619.773 93.3256 619.961 93.3776L624.152 94.3837C624.21 94.3972 624.269 94.4043 624.328 94.4048Z" fill="#0F1011"/>
<path d="M620.137 109.963C620.137 109.963 614.216 110.593 610.062 109.145C610.062 109.145 610.097 113.049 614.784 113.429C619.471 113.809 620.137 109.963 620.137 109.963Z" fill="#F8FCFF"/>
<path d="M635.53 86.0206C634.368 102.614 636.192 119.282 640.918 135.229C640.918 135.229 654.418 111.931 656.506 92.532C658.463 74.3476 645.065 63.6243 636.023 61.6075C601.642 53.9459 599.167 79.0804 599.167 79.0804C605.431 92.1153 639.256 92.0588 639.256 92.0588" fill="#0F1011"/>
<path d="M628.975 104.229C628.892 105.126 628.988 106.03 629.257 106.89C629.525 107.749 629.962 108.547 630.54 109.236C631.119 109.926 631.829 110.493 632.628 110.906C633.428 111.319 634.301 111.569 635.198 111.642C636.095 111.715 636.997 111.609 637.853 111.33C638.708 111.052 639.5 110.606 640.183 110.019C640.865 109.432 641.424 108.715 641.827 107.91C642.231 107.105 642.471 106.228 642.533 105.33C642.621 104.436 642.528 103.533 642.26 102.676C641.992 101.819 641.554 101.025 640.973 100.34C640.392 99.6558 639.679 99.0955 638.877 98.6926C638.075 98.2897 637.2 98.0525 636.304 97.9951C631.451 97.8411 629.279 100.483 628.975 104.229Z" fill="#E98862"/>
<g opacity="0.15">
<path d="M613.754 106.229C613.887 106.228 614.015 106.181 614.115 106.094C614.215 106.007 614.281 105.887 614.301 105.756C614.32 105.625 614.292 105.491 614.222 105.379C614.151 105.267 614.042 105.184 613.916 105.145L610.652 104.147L612.93 99.0589C612.96 98.9925 612.976 98.9209 612.978 98.8481C612.981 98.7753 612.968 98.7029 612.942 98.6349C612.917 98.5668 612.877 98.5046 612.827 98.4517C612.778 98.3988 612.718 98.3562 612.651 98.3265C612.585 98.2967 612.513 98.2803 612.441 98.2782C612.368 98.2762 612.296 98.2884 612.228 98.3144C612.16 98.3403 612.097 98.3794 612.045 98.4294C611.992 98.4794 611.949 98.5393 611.919 98.6057L609.385 104.267C609.353 104.339 609.336 104.417 609.336 104.495C609.337 104.574 609.353 104.652 609.386 104.723C609.418 104.795 609.466 104.859 609.525 104.91C609.584 104.962 609.653 105.001 609.728 105.024L613.591 106.206C613.644 106.222 613.699 106.23 613.754 106.229Z" fill="black"/>
</g>
<path d="M452.966 203.209C452.966 203.209 443.877 198.788 437.051 200.484C430.225 202.179 433.423 205.121 438.39 206.167C443.357 207.213 454.271 208.914 454.271 208.914" fill="#E98862"/>
<path d="M447.657 203C447.657 203 430.807 201.227 430.631 205.285C430.631 205.285 429.894 217.807 432.181 219.739C435.637 222.66 452.753 220.372 452.753 220.372L447.657 203Z" fill="#E98862"/>
<path d="M492.199 223.683H558.056C560.006 223.684 561.925 223.193 563.636 222.256C565.346 221.32 566.794 219.968 567.846 218.325L609.458 153.313L589.878 140.76L551.697 200.413H492.199V223.683Z" fill="#354760"/>
<path d="M581.125 263.341C585.763 274.012 676.921 278.445 678.139 259.673C678.914 247.728 668.396 237.3 668.396 214.018C668.396 190.737 689.798 161.005 672.359 143.552C667.298 138.488 658.562 135.219 647.912 135.208C647.114 141.425 609.401 141.447 609.114 135.352C607.674 135.374 606.556 135.397 605.86 135.43C569.121 137.014 585.265 178.857 585.618 209.597C586.055 245.567 576.341 252.349 581.125 263.341Z" fill="#354760"/>
<path d="M609.115 135.352C609.403 141.447 612.713 150.412 622.933 151.088C636.552 151.985 647.115 141.425 647.913 135.208H647.879C634.47 135.208 616.933 135.23 609.115 135.352Z" fill="#E98862"/>
<path d="M504.297 272.639C542.94 272.639 574.266 241.288 574.266 202.613C574.266 163.939 542.94 132.588 504.297 132.588C465.654 132.588 434.328 163.939 434.328 202.613C434.328 241.288 465.654 272.639 504.297 272.639Z" fill="#FF8E51"/>
<path d="M432.187 219.742C432.497 219.989 432.845 220.186 433.216 220.326C435.202 220.737 440.209 219.538 441.011 218.147C442.318 215.887 441.506 207.715 440.354 204.75C439.273 201.98 433.885 203.14 433.177 203.271C433.155 203.279 433.132 203.285 433.109 203.288C431.641 203.692 430.673 204.321 430.632 205.29C430.632 205.29 429.89 217.801 432.187 219.742Z" fill="#E98862"/>
<path d="M578.872 227.297C578.872 227.297 576.2 212.721 565.903 215.257C559.403 216.858 540.511 214.001 540.223 222.356C539.974 229.605 557.717 231.537 563.586 230.933C568.851 230.391 578.872 227.297 578.872 227.297Z" fill="#E98862"/>
<path d="M569.674 215.097C569.674 215.097 554.348 212.834 550.923 214.29C547.892 215.58 555.352 219.609 555.352 219.609L569.674 215.097Z" fill="#E98862"/>
<path d="M564.772 235.391L633.287 233.301C635.426 233.235 637.509 232.602 639.323 231.466C641.137 230.33 642.616 228.732 643.61 226.836L677.436 162.282L656.056 151.06L625.504 209.364L564.036 211.239L564.772 235.391Z" fill="#354760"/>
<path d="M522.878 189.774C526.228 189.774 528.944 187.056 528.944 183.703C528.944 180.351 526.228 177.633 522.878 177.633C519.529 177.633 516.813 180.351 516.813 183.703C516.813 187.056 519.529 189.774 522.878 189.774Z" fill="#0F1011"/>
<path d="M485.716 189.774C489.065 189.774 491.781 187.056 491.781 183.703C491.781 180.351 489.065 177.633 485.716 177.633C482.366 177.633 479.65 180.351 479.65 183.703C479.65 187.056 482.366 189.774 485.716 189.774Z" fill="#0F1011"/>
<path d="M470.936 206.305C470.936 210.689 471.799 215.031 473.476 219.082C475.152 223.133 477.61 226.813 480.707 229.914C483.805 233.014 487.483 235.473 491.53 237.151C495.578 238.829 499.916 239.693 504.297 239.693C508.678 239.693 513.016 238.829 517.064 237.151C521.111 235.473 524.789 233.014 527.887 229.914C530.984 226.813 533.442 223.133 535.118 219.082C536.795 215.031 537.658 210.689 537.658 206.305H470.936Z" fill="white"/>
<path d="M419.192 28.357H82.1152V169.054H419.192V28.357Z" fill="#354760"/>
<path d="M159.108 39.7253C147.548 39.7255 136.244 43.1281 126.602 49.5094C116.959 55.8907 109.405 64.969 104.879 75.6145C100.353 86.26 99.0543 98.0027 101.146 109.381C103.237 120.759 108.626 131.271 116.641 139.608C117.77 140.782 118.947 141.909 120.173 142.988C130.556 152.137 145.497 155.36 160.425 155.36C177.103 155.36 190.845 150.743 201.558 139.59C209.573 131.256 214.961 120.747 217.053 109.371C219.145 97.9952 217.848 86.2549 213.324 75.6111C208.8 64.9674 201.248 55.8903 191.608 49.5096C181.968 43.1288 170.666 39.7262 159.108 39.7253Z" fill="white"/>
<path d="M394.299 89.3849H231.815V99.4855H394.299V89.3849Z" fill="white"/>
<path d="M394.299 115.03H231.815V125.131H394.299V115.03Z" fill="white"/>
<path d="M394.299 140.676H231.815V150.776H394.299V140.676Z" fill="white"/>
<path d="M185.736 141.791C184.898 141.764 183.532 141.725 181.791 141.7C181.625 146.501 179.946 151.127 176.993 154.915C184.383 152.553 191.232 148.749 197.145 143.723C193.449 142.558 189.61 141.907 185.736 141.791ZM134.812 141.868C134.809 141.865 134.807 141.86 134.807 141.855C134.807 141.85 134.809 141.845 134.812 141.842C134.773 141.738 134.747 141.629 134.735 141.519C129.952 141.498 125.187 142.106 120.562 143.326C128.189 149.934 137.386 154.467 147.269 156.49C140.241 152.425 135.56 146.307 134.812 141.868Z" fill="#367CFF"/>
<path d="M181.791 141.7C181.625 146.501 179.946 151.127 176.993 154.915C176.98 154.915 176.968 154.929 176.955 154.929C176.349 155.122 175.743 155.303 175.137 155.47C174.915 155.535 174.711 155.581 174.504 155.639C173.899 155.806 173.305 155.961 172.7 156.103C172.029 156.258 171.358 156.4 170.688 156.546C169.785 156.727 168.882 156.879 167.966 157.011C167.399 157.102 166.819 157.191 166.239 157.256C166.097 157.269 165.955 157.294 165.796 157.308C165.228 157.372 164.673 157.419 164.093 157.463C163.346 157.54 162.572 157.591 161.811 157.618L160.895 157.656C160.302 157.669 159.696 157.682 159.103 157.682C156.984 157.682 154.866 157.571 152.758 157.35C152.384 157.311 151.998 157.259 151.624 157.208C151.249 157.157 150.876 157.117 150.502 157.053C150.218 157.014 149.922 156.975 149.625 156.924C149.328 156.873 149.018 156.82 148.709 156.769C148.245 156.692 147.78 156.601 147.316 156.511C147.303 156.511 147.278 156.498 147.264 156.498C140.237 152.433 135.555 146.315 134.808 141.876C134.805 141.872 134.803 141.868 134.803 141.863C134.803 141.858 134.805 141.853 134.808 141.849C134.775 141.744 134.754 141.636 134.744 141.527H134.795C151.035 141.519 172.3 141.558 181.791 141.7Z" fill="#E98862"/>
<path d="M139.4 149.154C139.4 149.154 149.78 143.646 147.463 115.356L168.91 111.376C168.91 111.376 166.499 136.74 177.35 144.793L139.4 149.154Z" fill="#E98862"/>
<g opacity="0.15">
<path d="M172.949 139.489L155.131 125.847L169.126 125.702C169.53 130.496 170.827 135.172 172.949 139.489Z" fill="black"/>
</g>
<path d="M135.288 104.386C136.772 112.968 141.453 121.096 149.017 123.869C157.998 127.16 164.649 127.383 175.004 127.383C189.132 127.383 188.666 112.635 189.065 97.7735C189.464 82.8536 188.278 66.8478 182.695 61.6485C171.547 51.2709 138.833 57.8432 134.854 75.2009C132.793 84.179 133.875 96.2155 135.288 104.386Z" fill="#E98862"/>
<path d="M168.445 97.7735C169.518 97.7735 170.389 96.9023 170.389 95.8276C170.389 94.7529 169.518 93.8817 168.445 93.8817C167.371 93.8817 166.5 94.7529 166.5 95.8276C166.5 96.9023 167.371 97.7735 168.445 97.7735Z" fill="#0F1011"/>
<path d="M183.79 96.5135C184.864 96.5135 185.735 95.6423 185.735 94.5676C185.735 93.493 184.864 92.6218 183.79 92.6218C182.717 92.6218 181.846 93.493 181.846 94.5676C181.846 95.6423 182.717 96.5135 183.79 96.5135Z" fill="#0F1011"/>
<path d="M187.161 90.4233H187.15L181.997 90.359C181.877 90.3577 181.758 90.3327 181.648 90.2855C181.538 90.2382 181.438 90.1697 181.354 90.0837C181.27 89.9978 181.204 89.8961 181.16 89.7846C181.115 89.673 181.093 89.5538 181.095 89.4337C181.094 89.3132 181.118 89.1938 181.165 89.0827C181.212 88.9716 181.28 88.871 181.366 88.7868C181.452 88.7026 181.555 88.6365 181.667 88.5925C181.779 88.5485 181.899 88.5275 182.019 88.5306L187.172 88.5948C187.414 88.5963 187.646 88.694 187.816 88.8665C187.987 89.039 188.082 89.2721 188.08 89.5146C188.079 89.7571 187.981 89.989 187.809 90.1594C187.636 90.3298 187.403 90.4247 187.161 90.4233Z" fill="#0F1011"/>
<path d="M164.247 92.3004C164.023 92.3003 163.807 92.218 163.64 92.0691C163.473 91.9203 163.366 91.7152 163.339 91.4928C163.313 91.2703 163.369 91.046 163.497 90.8621C163.625 90.6783 163.816 90.5478 164.033 90.4953L169.114 89.2763C169.234 89.2384 169.36 89.2255 169.485 89.2384C169.609 89.2513 169.73 89.2898 169.839 89.3514C169.948 89.413 170.044 89.4965 170.119 89.5966C170.195 89.6967 170.249 89.8113 170.279 89.9333C170.308 90.0553 170.312 90.182 170.29 90.3056C170.269 90.4292 170.222 90.547 170.153 90.6517C170.084 90.7564 169.994 90.8457 169.889 90.9141C169.783 90.9826 169.665 91.0286 169.542 91.0493L164.461 92.2683C164.391 92.2877 164.319 92.2985 164.247 92.3004Z" fill="#0F1011"/>
<path d="M151.181 75.3527C152.695 104.329 149.862 117.794 148.286 122.845C148.183 123.178 148.005 123.482 147.766 123.736C147.527 123.99 147.234 124.186 146.909 124.31C146.583 124.434 146.234 124.482 145.887 124.451C145.54 124.421 145.204 124.311 144.906 124.131C139.864 121.133 128.408 111.784 124.533 87.3416C121.07 65.4394 137.364 55.7776 148.129 52.5541C157.41 49.776 169.988 50.3123 179.997 56.6941C192.604 64.7324 190.743 81.2701 190.743 81.2701C175.448 81.976 142.767 83.3346 142.767 83.3346" fill="#0F1011"/>
<path d="M158.327 100.591C158.494 102.767 157.793 104.919 156.379 106.579C154.964 108.239 152.951 109.27 150.778 109.449C148.606 109.627 146.451 108.937 144.785 107.53C143.12 106.123 142.078 104.113 141.889 101.94C141.782 100.856 141.893 99.7621 142.217 98.7225C142.541 97.6829 143.071 96.7192 143.775 95.8888C144.479 95.0584 145.343 94.3783 146.315 93.889C147.287 93.3997 148.348 93.1112 149.434 93.0407C155.311 92.8479 157.955 96.0481 158.327 100.591Z" fill="#E98862"/>
<g opacity="0.15">
<path d="M177.08 106.625C176.919 106.626 176.763 106.568 176.64 106.463C176.518 106.358 176.438 106.213 176.414 106.053C176.39 105.894 176.424 105.731 176.51 105.595C176.596 105.458 176.729 105.358 176.883 105.311L180.839 104.092L178.071 97.9242C178.026 97.8431 177.999 97.7537 177.99 97.6615C177.982 97.5693 177.992 97.4763 178.021 97.3884C178.05 97.3005 178.097 97.2195 178.159 97.1506C178.221 97.0818 178.296 97.0264 178.381 96.9881C178.465 96.9498 178.556 96.9293 178.649 96.928C178.741 96.9267 178.833 96.9445 178.918 96.9804C179.003 97.0162 179.08 97.0694 179.144 97.1365C179.208 97.2035 179.257 97.2831 179.289 97.3701L182.368 104.232C182.408 104.318 182.429 104.413 182.43 104.508C182.43 104.604 182.41 104.699 182.37 104.786C182.331 104.873 182.273 104.95 182.201 105.013C182.129 105.076 182.044 105.122 181.953 105.149L177.27 106.59C177.209 106.611 177.145 106.623 177.08 106.625Z" fill="black"/>
</g>
<path d="M169.345 111.159C169.345 111.159 176.525 111.917 181.557 110.161C181.557 110.161 181.518 114.894 175.836 115.361C170.155 115.827 169.345 111.159 169.345 111.159Z" fill="white"/>
<path d="M229.512 74.6602L354.225 74.6602V47.4312L229.512 47.4312V74.6602Z" fill="#FF8E51"/>
<path d="M249.773 69.3788L244.362 66.5309L238.946 69.3788L239.982 63.3494L235.602 59.0776L241.653 58.2L244.362 52.7125L247.063 58.2L253.115 59.0776L248.736 63.3494L249.773 69.3788Z" fill="white"/>
<path d="M273.527 69.3788L268.116 66.5309L262.7 69.3788L263.737 63.3494L259.357 59.0776L265.408 58.2L268.116 52.7125L270.818 58.2L276.871 59.0776L272.491 63.3494L273.527 69.3788Z" fill="white"/>
<path d="M297.281 69.3788L291.87 66.5309L286.455 69.3788L287.491 63.3494L283.111 59.0776L289.162 58.2L291.87 52.7125L294.572 58.2L300.625 59.0776L296.245 63.3494L297.281 69.3788Z" fill="white"/>
<path d="M321.036 69.3788L315.625 66.5309L310.209 69.3788L311.246 63.3494L306.865 59.0776L312.916 58.2L315.625 52.7125L318.326 58.2L324.38 59.0776L319.999 63.3494L321.036 69.3788Z" fill="white"/>
<path d="M344.79 69.3788L339.379 66.5309L333.964 69.3788L335 63.3494L330.62 59.0776L336.671 58.2L339.379 52.7125L342.081 58.2L348.134 59.0776L343.754 63.3494L344.79 69.3788Z" fill="white"/>
<path d="M129.29 590.753C107.36 583.952 86.0834 575.063 66.697 550.186C62.7187 545.088 58.9807 538.557 61.1609 532.456C62.8018 527.864 67.5484 524.92 72.3715 524.17C74.168 523.909 75.9889 523.859 77.7969 524.022C77.8058 524.022 77.8146 524.022 77.818 524.022C80.5974 524.306 83.3449 524.846 86.0258 525.633L86.792 525.855C99.587 529.495 111.776 535.004 122.964 542.204C123.978 542.852 125.181 543.137 126.377 543.013C127.573 542.889 128.693 542.364 129.553 541.523C130.413 540.681 130.963 539.573 131.113 538.379C131.264 537.185 131.006 535.975 130.382 534.946C129.241 533.08 127.913 531.335 126.419 529.737C124.215 527.43 121.8 525.335 119.206 523.478C115.759 520.96 112.08 518.713 108.48 516.414C95.0985 507.885 82.4208 498.297 70.569 487.742C62.1098 480.2 53.8366 471.83 49.8162 461.227C47.9683 456.352 47.1279 450.729 49.3313 446.004C52.9674 438.247 63.2679 436.073 71.6906 437.683C86.4499 440.512 98.2407 451.34 108.696 462.132C117.367 471.1 127.076 481.03 139.539 481.58C141.663 481.779 143.798 481.351 145.681 480.348C149.234 478.194 150.147 473.203 148.882 469.24C147.616 465.278 144.684 462.112 141.854 459.07C125.412 441.415 109.23 423.049 98.553 401.416C87.876 379.783 83.1459 354.242 90.5655 331.272C92.7411 324.558 96.0097 318.024 101.108 313.146C106.207 308.268 113.358 305.208 120.358 306.143C129.894 307.399 137.077 315.451 141.909 323.771C158.517 352.31 157.502 387.275 162.18 419.966C163.49 429.117 165.391 438.504 170.838 446.037C171.34 446.762 171.992 447.369 172.749 447.82C177.231 450.418 181.254 445.181 182.936 440.736C189.579 423.151 191.24 403.041 203.135 388.487C207.675 382.946 214.096 378.315 221.254 378.36C230.001 378.42 237.48 385.728 240.031 394.096C242.582 402.463 241.055 411.556 238.323 419.865C233.249 435.275 224.157 449.12 213.442 461.286C207.795 467.713 201.405 474.203 199.712 482.583C199.194 485.432 199.411 488.366 200.344 491.107C201.276 493.849 202.893 496.306 205.042 498.246C206.046 499.12 207.215 499.784 208.481 500.199C209.747 500.613 211.082 500.768 212.409 500.656C215.279 500.393 217.874 498.928 220.381 497.504C221.432 496.906 222.485 496.299 223.544 495.704C227.722 493.323 231.9 490.94 236.08 488.553C246.704 482.487 259.533 476.289 270.598 481.513C276.251 484.183 279.945 489.435 281.685 495.46C283.243 500.928 283.243 506.724 281.685 512.192C278.389 523.565 257.613 555.212 249.044 563.374C239.03 572.902 204.324 614.027 129.29 590.753Z" fill="#8DDBE0"/>
</g>
<defs>
<clipPath id="clip0_49_209">
<rect width="784" height="599" fill="white"/>
</clipPath>
</defs>
</svg>
