<svg width="245" height="289" viewBox="0 0 245 289" fill="none" xmlns="http://www.w3.org/2000/svg">
<g clip-path="url(#clip0_83_118)">
<path opacity="0.2" d="M110.198 274.29C171.059 274.29 220.397 224.997 220.397 164.191C220.397 103.385 171.059 54.092 110.198 54.092C49.3375 54.092 0 103.385 0 164.191C0 224.997 49.3375 274.29 110.198 274.29Z" fill="#367CFF"/>
<path d="M8.5861 256.534C3.87215 246.383 1.42782 235.328 1.4231 224.138C1.41838 212.948 3.85338 201.891 8.55876 191.736C13.2641 181.581 20.127 172.572 28.67 165.336C37.2131 158.099 47.2314 152.808 58.0281 149.832L64.5853 173.515C57.2304 175.541 50.4054 179.143 44.5851 184.071C38.7647 188.999 34.0887 195.134 30.8824 202.051C27.676 208.967 26.0162 216.498 26.0184 224.121C26.0206 231.743 27.6848 239.273 30.8952 246.188L8.5861 256.534Z" fill="#367CFF"/>
<path d="M9.87256 289C8.51031 289.001 7.17437 288.625 6.01275 287.914C4.85114 287.203 3.90922 286.185 3.29134 284.972C1.56497 281.585 0.523266 277.891 0.225709 274.102C-0.0718481 270.312 0.380567 266.501 1.55712 262.887C3.93329 255.586 9.11479 249.528 15.9618 246.045C19.352 244.32 23.0491 243.279 26.842 242.982C30.6349 242.684 34.4492 243.136 38.0672 244.312C45.3741 246.686 51.4378 251.863 54.9244 258.704C55.3727 259.567 55.6455 260.511 55.7271 261.48C55.8087 262.45 55.6975 263.426 55.3998 264.352C55.1022 265.278 54.624 266.136 53.9928 266.877C53.3616 267.618 52.59 268.226 51.7223 268.668C50.8546 269.109 49.9081 269.375 48.9372 269.449C47.9664 269.523 46.9904 269.405 46.0656 269.1C45.1408 268.796 44.2854 268.312 43.5487 267.676C42.8121 267.04 42.2087 266.264 41.7734 265.394C40.929 263.728 39.7639 262.245 38.345 261.029C36.926 259.813 35.281 258.889 33.5041 258.31C31.7272 257.73 29.8533 257.507 27.9898 257.652C26.1263 257.797 24.3097 258.307 22.6441 259.155C20.9784 260.002 19.4964 261.17 18.2829 262.59C17.0694 264.01 16.1483 265.656 15.5722 267.433C14.9961 269.209 14.7765 271.082 14.9258 272.943C15.0751 274.805 15.5905 276.619 16.4424 278.281C17.0145 279.405 17.2888 280.656 17.239 281.916C17.1893 283.175 16.8172 284.401 16.1582 285.476C15.4993 286.551 14.5755 287.44 13.4751 288.057C12.3747 288.673 11.1343 288.998 9.87256 289Z" fill="#292A2E"/>
<path d="M200.587 163.454C190.223 172.298 177.682 178.216 164.261 180.595L159.931 156.404C171.864 154.256 182.685 148.049 190.558 138.837C198.432 129.626 202.874 117.976 203.131 105.865L227.721 106.378C227.34 126.114 219.359 144.944 205.437 158.952C203.876 160.528 202.26 162.029 200.587 163.454Z" fill="#367CFF"/>
<path d="M234.79 105.675C230.605 109.228 225.495 111.519 220.057 112.281C214.618 113.043 209.075 112.246 204.072 109.981C199.07 107.716 194.815 104.078 191.804 99.4899C188.792 94.9017 187.147 89.5529 187.062 84.0667C187.043 82.119 187.796 80.2429 189.157 78.8482C190.518 77.4536 192.376 76.6537 194.325 76.6234C196.275 76.593 198.157 77.3347 199.561 78.6863C200.965 80.0379 201.776 81.8896 201.818 83.837C201.876 87.6027 203.43 91.1909 206.136 93.8123C208.843 96.4337 212.481 97.8734 216.25 97.8149C220.019 97.7564 223.611 96.2043 226.234 93.5002C228.858 90.796 230.299 87.1613 230.241 83.3956C230.21 81.4407 230.958 79.5537 232.32 78.1499C233.682 76.746 235.547 75.9402 237.504 75.9098C239.46 75.8794 241.349 76.6269 242.754 77.9877C244.159 79.3486 244.966 81.2114 244.996 83.1664C245.066 86.9684 244.38 90.7464 242.978 94.2818C241.576 97.8172 239.487 101.04 236.83 103.763C236.177 104.436 235.497 105.074 234.79 105.675Z" fill="#292A2E"/>
<path d="M182.159 0.562217L175.466 19.9552C175.424 20.0787 175.411 20.2106 175.429 20.3401C175.446 20.4696 175.494 20.5931 175.569 20.7007C175.643 20.8082 175.742 20.8968 175.857 20.9593C175.972 21.0218 176.1 21.0564 176.23 21.0603L180.746 21.1949C180.878 21.1989 181.008 21.2343 181.124 21.2982C181.24 21.3622 181.339 21.4528 181.413 21.5627C181.487 21.6725 181.534 21.7984 181.55 21.9299C181.565 22.0613 181.549 22.1947 181.503 22.3188L174.054 42.3542C173.985 42.5417 173.985 42.7479 174.055 42.9352C174.125 43.1225 174.26 43.2785 174.435 43.3748C174.611 43.471 174.815 43.5012 175.01 43.4596C175.206 43.4181 175.38 43.3077 175.502 43.1485L193.04 20.0539C193.118 19.9516 193.171 19.8327 193.195 19.7065C193.219 19.5804 193.214 19.4503 193.179 19.3266C193.145 19.2028 193.082 19.0887 192.996 18.9931C192.91 18.8975 192.804 18.823 192.684 18.7754L187.431 16.6814C187.329 16.6404 187.235 16.5795 187.156 16.5021C187.077 16.4247 187.014 16.3324 186.971 16.2305C186.929 16.1287 186.906 16.0193 186.906 15.9088C186.906 15.7983 186.928 15.6889 186.97 15.5869L192.861 1.4495C192.912 1.3249 192.933 1.18959 192.921 1.05517C192.909 0.920758 192.865 0.791261 192.792 0.6778C192.719 0.56434 192.619 0.470306 192.502 0.403774C192.384 0.337243 192.252 0.3002 192.117 0.295828L182.975 6.75982e-05C182.797 -0.00567995 182.622 0.0458114 182.475 0.146986C182.328 0.24816 182.217 0.393689 182.159 0.562217Z" fill="#367CFF"/>
<path d="M11.2051 89.5646L19.0039 104.718C19.0534 104.815 19.0795 104.922 19.0802 105.03C19.0808 105.139 19.056 105.246 19.0076 105.343C18.9592 105.44 18.8887 105.525 18.8016 105.59C18.7146 105.655 18.6136 105.698 18.5066 105.717L14.8101 106.361C14.7017 106.38 14.5994 106.425 14.5116 106.491C14.4238 106.558 14.353 106.644 14.3052 106.743C14.2573 106.842 14.2337 106.951 14.2363 107.061C14.2389 107.171 14.2676 107.279 14.3201 107.375L22.8176 122.967C22.8955 123.113 22.9186 123.282 22.8829 123.444C22.8471 123.605 22.7548 123.748 22.6226 123.848C22.4903 123.947 22.3268 123.996 22.1617 123.986C21.9965 123.975 21.8404 123.907 21.7217 123.791L4.56752 106.876C4.49174 106.801 4.43428 106.71 4.39961 106.609C4.36494 106.508 4.354 106.401 4.36762 106.295C4.38125 106.189 4.41908 106.088 4.47818 105.999C4.53728 105.911 4.61606 105.837 4.70839 105.783L8.77929 103.441C8.85882 103.395 8.92843 103.334 8.9841 103.261C9.03977 103.188 9.08038 103.104 9.10358 103.016C9.12679 102.927 9.13213 102.834 9.11928 102.744C9.10644 102.653 9.07568 102.565 9.02877 102.486L2.51206 91.5591C2.45501 91.4628 2.42213 91.3541 2.41624 91.2423C2.41035 91.1306 2.43163 91.019 2.47824 90.9173C2.52486 90.8155 2.59544 90.7265 2.68395 90.6579C2.77246 90.5893 2.87627 90.5431 2.98653 90.5233L10.4681 89.2003C10.6137 89.1747 10.7638 89.1962 10.8964 89.2617C11.029 89.3273 11.1371 89.4334 11.2051 89.5646Z" fill="#292A2E"/>
<path d="M41.5122 151.122L57.8175 243.254C59.9252 255.164 66.1641 265.952 75.4394 273.724C84.7146 281.497 96.4335 285.757 108.539 285.757C120.341 285.757 131.786 281.708 140.958 274.287C150.13 266.866 156.473 256.523 158.925 244.989L178.885 151.12L41.5122 151.122Z" fill="#367CFF"/>
<path d="M110.199 171.411C148.133 171.411 178.885 162.327 178.885 151.122C178.885 139.916 148.133 130.832 110.199 130.832C72.2641 130.832 41.5122 139.916 41.5122 151.122C41.5122 162.327 72.2641 171.411 110.199 171.411Z" fill="#292A2E"/>
<path d="M134.638 203.183H86.5621C82.008 203.183 78.3162 206.871 78.3162 211.421V234.658C78.3162 239.208 82.008 242.896 86.5621 242.896H134.638C139.192 242.896 142.884 239.208 142.884 234.658V211.421C142.884 206.871 139.192 203.183 134.638 203.183Z" fill="#292A2E"/>
<path d="M105.391 223.781H102.533C102.533 220.019 104.239 214.835 112.366 211.499C117.127 209.546 115.551 202.326 115.534 202.254L118.32 201.615C118.411 202.008 120.459 211.266 113.453 214.139C108.103 216.334 105.391 219.579 105.391 223.781Z" fill="#367CFF"/>
<path d="M131.034 244.567C128.255 239.36 127.095 239.463 122.204 239.897C120.611 240.038 118.63 240.215 116.211 240.215C105.385 240.215 104.258 232.341 104.248 232.262L107.083 231.902L105.665 232.082L107.081 231.889C107.114 232.112 107.979 237.359 116.211 237.359C118.502 237.359 120.335 237.196 121.95 237.053C127.453 236.563 130.035 236.625 133.555 243.223L131.034 244.567Z" fill="#367CFF"/>
<path d="M97.9957 225.245C97.8981 225.245 97.8019 225.221 97.7152 225.177L94.6259 223.586C94.4816 223.511 94.3727 223.382 94.3234 223.228C94.274 223.073 94.2882 222.905 94.3627 222.761C94.4373 222.617 94.5662 222.508 94.7209 222.459C94.8757 222.409 95.0438 222.423 95.1882 222.498L98.2775 224.089C98.3998 224.152 98.4974 224.254 98.5545 224.379C98.6116 224.504 98.625 224.644 98.5925 224.778C98.56 224.911 98.4834 225.03 98.3752 225.115C98.2669 225.2 98.1333 225.245 97.9957 225.245Z" fill="white"/>
<path d="M94.2632 231.301C94.1203 231.301 93.9821 231.25 93.8724 231.159C93.7628 231.067 93.6886 230.94 93.6627 230.8C93.6368 230.659 93.6609 230.514 93.7308 230.39C93.8006 230.265 93.9118 230.169 94.0452 230.118L97.2941 228.882C97.4438 228.833 97.6066 228.843 97.7488 228.911C97.8911 228.979 98.0018 229.098 98.0579 229.245C98.114 229.392 98.1113 229.555 98.0503 229.701C97.9893 229.846 97.8746 229.962 97.7302 230.024L94.4813 231.261C94.4117 231.287 94.3378 231.301 94.2632 231.301Z" fill="white"/>
<path d="M113.802 228.786C113.649 228.786 113.501 228.728 113.388 228.624C113.275 228.52 113.206 228.378 113.193 228.225C113.18 228.072 113.225 227.92 113.319 227.799C113.413 227.678 113.55 227.596 113.701 227.571L117.131 226.992C117.291 226.966 117.454 227.004 117.586 227.098C117.718 227.192 117.807 227.334 117.834 227.494C117.861 227.653 117.823 227.817 117.73 227.949C117.637 228.081 117.495 228.171 117.335 228.198L113.905 228.777C113.871 228.783 113.837 228.786 113.802 228.786Z" fill="white"/>
<path d="M111.294 224.64C111.185 224.64 111.077 224.611 110.983 224.555C110.888 224.5 110.811 224.42 110.758 224.324C110.705 224.228 110.679 224.12 110.682 224.011C110.685 223.901 110.718 223.795 110.776 223.702L112.632 220.765C112.674 220.695 112.73 220.635 112.795 220.587C112.861 220.539 112.936 220.504 113.015 220.486C113.095 220.467 113.177 220.464 113.257 220.477C113.337 220.491 113.414 220.52 113.483 220.563C113.552 220.607 113.612 220.663 113.658 220.73C113.705 220.797 113.738 220.872 113.755 220.952C113.772 221.031 113.774 221.113 113.759 221.193C113.744 221.273 113.713 221.35 113.668 221.418L111.812 224.355C111.757 224.442 111.681 224.514 111.59 224.564C111.499 224.614 111.397 224.64 111.294 224.64Z" fill="white"/>
<path d="M146.255 221.644C140.309 221.644 135.349 220.022 131.471 216.8C124.308 210.849 123.539 201.662 123.509 201.274L126.359 201.06L124.934 201.167L126.359 201.058C126.366 201.139 127.087 209.462 133.32 214.623C137.403 218.003 142.97 219.336 149.875 218.585L150.185 221.424C148.88 221.568 147.568 221.642 146.255 221.644Z" fill="#367CFF"/>
<path d="M71.7386 239.392L71.2107 236.585C82.1686 234.527 82.1605 229.972 82.1511 224.699C82.145 221.147 82.1376 217.122 86.3253 214.768C94.1139 210.39 93.49 200.468 93.483 200.368L96.3331 200.153C96.3694 200.634 97.1215 211.976 87.7266 217.256C85.131 218.715 85.0028 221.033 85.0093 224.693C85.0191 230.129 85.0309 236.894 71.7386 239.392Z" fill="#367CFF"/>
<path d="M156.204 157.452C156.149 157.452 156.095 157.446 156.041 157.435C152.947 156.814 147.11 154.172 147.162 148.617C147.158 147.528 147.417 146.455 147.918 145.488C148.418 144.52 149.145 143.688 150.036 143.062C149.124 141.373 148.854 139.411 149.276 137.538C150.443 131.464 156.565 130.399 159.64 130.687C159.855 130.708 160.053 130.813 160.191 130.979C160.328 131.146 160.395 131.36 160.375 131.574C160.355 131.789 160.251 131.988 160.085 132.126C159.919 132.264 159.705 132.331 159.49 132.312C159.188 132.284 152.059 131.715 150.88 137.846C150.532 139.326 150.73 140.881 151.437 142.227C154.468 140.766 158.621 140.758 160.527 142.214C160.909 142.475 161.206 142.842 161.382 143.27C161.558 143.697 161.606 144.167 161.518 144.621C161.137 146.608 158.803 147.599 155.848 147.032C153.987 146.693 152.285 145.765 150.992 144.386C150.308 144.862 149.751 145.498 149.368 146.238C148.985 146.978 148.789 147.8 148.796 148.633C148.743 154.222 156.288 155.821 156.364 155.836C156.563 155.876 156.739 155.988 156.86 156.151C156.98 156.314 157.036 156.516 157.016 156.717C156.996 156.919 156.902 157.105 156.751 157.241C156.601 157.377 156.406 157.452 156.203 157.452L156.204 157.452ZM152.465 143.552C153.495 144.512 154.775 145.162 156.158 145.429C158.106 145.801 159.723 145.322 159.917 144.313C159.946 144.156 159.925 143.994 159.857 143.85C159.789 143.705 159.676 143.587 159.536 143.51C158.304 142.567 155.09 142.414 152.465 143.552Z" fill="white"/>
<path d="M86.4035 151.324C86.2321 151.324 86.0651 151.27 85.926 151.17C85.787 151.069 85.683 150.928 85.6288 150.766C85.5746 150.603 85.573 150.428 85.6241 150.264C85.6752 150.101 85.7764 149.958 85.9136 149.855C86.0895 149.722 90.2009 146.556 87.8633 142.713C87.362 141.817 86.5753 141.113 85.6281 140.714C84.6074 143.039 82.2992 145.079 80.4862 145.231C80.1042 145.282 79.7157 145.22 79.3682 145.054C79.0208 144.887 78.7296 144.623 78.5304 144.293C78.3068 143.905 78.1934 143.463 78.2025 143.015C78.2115 142.567 78.3427 142.13 78.5819 141.751C79.492 140.09 81.7557 138.849 83.9635 138.799C84.1472 138.796 84.3309 138.799 84.5106 138.811C84.6131 138.256 84.5848 137.686 84.4282 137.144C84.2716 136.602 83.9908 136.104 83.6082 135.69C80.9223 132.668 76.0724 135.5 76.0242 135.529C75.932 135.584 75.83 135.62 75.7238 135.636C75.6177 135.651 75.5096 135.645 75.4056 135.619C75.3016 135.593 75.2039 135.546 75.1179 135.482C75.0319 135.418 74.9595 135.338 74.9046 135.246C74.8497 135.154 74.8135 135.052 74.7981 134.946C74.7826 134.84 74.7882 134.731 74.8146 134.628C74.8409 134.524 74.8875 134.426 74.9516 134.34C75.0158 134.254 75.0962 134.182 75.1884 134.127C75.4333 133.981 81.2575 130.587 84.8291 134.606C85.3829 135.211 85.7873 135.937 86.0099 136.726C86.2325 137.515 86.2672 138.345 86.1112 139.15C87.4394 139.669 88.55 140.627 89.2589 141.863C91.7496 145.954 88.7999 149.732 86.8935 151.158C86.7526 151.265 86.5806 151.323 86.4035 151.324ZM83.9536 140.434C82.1763 140.491 80.5581 141.543 80.013 142.537C79.9174 142.667 79.8587 142.82 79.8432 142.981C79.8278 143.141 79.8561 143.303 79.9252 143.449C79.966 143.518 80.0379 143.63 80.3507 143.607C81.3743 143.522 83.0554 142.163 83.9528 140.434H83.9536Z" fill="white"/>
<path d="M175.825 83.3912C180.006 112.926 152.266 131.344 115.564 136.529C78.8628 141.714 47.1 131.705 42.9196 102.167C38.7393 72.63 63.7245 34.7498 100.425 29.5648C137.126 24.3798 171.645 53.8539 175.825 83.3912Z" fill="#367CFF"/>
<path d="M140.617 51.8063L102.818 57.1461C90.9695 58.8199 82.7226 69.7731 84.3979 81.6108C86.0732 93.4485 97.0364 101.688 108.885 100.014L146.684 94.6744C158.533 93.0006 166.78 82.0473 165.104 70.2096C163.429 58.3719 152.466 50.1325 140.617 51.8063Z" fill="white"/>
<path d="M97.1744 6.7079L94.2434 7.26917L99.9041 36.7769L102.835 36.2156L97.1744 6.7079Z" fill="#367CFF"/>
<path d="M96.1281 14.6205C99.1404 14.6205 101.582 12.1807 101.582 9.17115C101.582 6.16156 99.1404 3.7218 96.1281 3.7218C93.1158 3.7218 90.6738 6.16156 90.6738 9.17115C90.6738 12.1807 93.1158 14.6205 96.1281 14.6205Z" fill="#292A2E"/>
<path d="M116.601 86.5553C116.07 86.5554 115.554 86.3827 115.131 86.0633L99.0796 74.0016C98.8179 73.8101 98.5968 73.5686 98.4293 73.2911C98.2617 73.0136 98.151 72.7056 98.1035 72.385C98.0561 72.0645 98.0728 71.7376 98.1527 71.4236C98.2327 71.1095 98.3742 70.8144 98.5692 70.5554C98.7642 70.2964 99.0087 70.0787 99.2886 69.9149C99.5685 69.751 99.8781 69.6444 100.2 69.6011C100.521 69.5577 100.848 69.5786 101.161 69.6625C101.475 69.7464 101.768 69.8916 102.025 70.0898L118.075 82.1523C118.487 82.4608 118.791 82.8909 118.944 83.3817C119.097 83.8725 119.092 84.399 118.929 84.8866C118.766 85.3742 118.453 85.7981 118.035 86.0981C117.617 86.3981 117.115 86.5591 116.601 86.5581V86.5553Z" fill="#292A2E"/>
<path d="M102.538 88.5415C102.083 88.5412 101.637 88.4141 101.25 88.1747C100.863 87.9353 100.551 87.5929 100.347 87.186C100.144 86.7791 100.059 86.3237 100.1 85.8709C100.142 85.4181 100.309 84.9857 100.582 84.6224L112.656 68.586C113.049 68.0731 113.629 67.736 114.269 67.6482C114.91 67.5604 115.559 67.729 116.075 68.1172C116.592 68.5054 116.934 69.0819 117.027 69.7209C117.12 70.3599 116.956 71.0098 116.572 71.5289L104.498 87.5653C104.27 87.8689 103.974 88.1153 103.633 88.2847C103.293 88.4542 102.918 88.5421 102.538 88.5415Z" fill="#292A2E"/>
<path d="M151.457 81.6301C150.927 81.6302 150.411 81.4575 149.987 81.1381L133.937 69.0751C133.678 68.8827 133.459 68.6409 133.294 68.3638C133.129 68.0867 133.02 67.7797 132.974 67.4604C132.928 67.1411 132.945 66.8159 133.025 66.5034C133.105 66.1909 133.247 65.8973 133.441 65.6395C133.635 65.3817 133.878 65.1647 134.156 65.0012C134.435 64.8376 134.742 64.7306 135.062 64.6863C135.382 64.642 135.708 64.6613 136.02 64.7431C136.332 64.8249 136.625 64.9676 136.882 65.1629L152.933 77.2259C153.344 77.5343 153.648 77.9645 153.802 78.4553C153.955 78.9461 153.949 79.4726 153.786 79.9602C153.623 80.4478 153.31 80.8716 152.892 81.1716C152.475 81.4717 151.973 81.6326 151.458 81.6317L151.457 81.6301Z" fill="#292A2E"/>
<path d="M137.395 83.6172C136.94 83.6169 136.494 83.49 136.107 83.2506C135.72 83.0112 135.408 82.6688 135.205 82.2619C135.001 81.855 134.916 81.3995 134.957 80.9467C134.999 80.4938 135.166 80.0615 135.439 79.6981L147.513 63.6617C147.904 63.1429 148.485 62.8004 149.128 62.7095C149.771 62.6187 150.424 62.7868 150.944 63.1771C151.463 63.5673 151.806 64.1477 151.897 64.7905C151.988 65.4333 151.819 66.0859 151.429 66.6047L139.355 82.641C139.127 82.9447 138.831 83.191 138.491 83.3604C138.15 83.5299 137.775 83.6178 137.395 83.6172Z" fill="#292A2E"/>
<path d="M128.145 106.709C128.882 105.734 129.882 104.988 131.027 104.559C132.172 104.129 133.416 104.034 134.614 104.283C135.811 104.533 136.913 105.118 137.791 105.969C138.669 106.82 139.287 107.903 139.572 109.092C139.624 109.302 139.634 109.521 139.601 109.735C139.568 109.949 139.493 110.154 139.38 110.339C139.267 110.524 139.119 110.685 138.944 110.812C138.769 110.94 138.57 111.032 138.359 111.082C138.148 111.133 137.93 111.141 137.715 111.107C137.501 111.072 137.296 110.996 137.112 110.882C136.927 110.768 136.767 110.619 136.641 110.443C136.514 110.268 136.424 110.068 136.375 109.858C136.278 109.454 136.102 109.073 135.858 108.736C135.614 108.4 135.305 108.116 134.951 107.898C134.597 107.681 134.203 107.536 133.792 107.471C133.381 107.406 132.962 107.422 132.558 107.519C132.153 107.616 131.772 107.791 131.436 108.035C131.099 108.279 130.814 108.587 130.597 108.941C130.379 109.296 130.234 109.689 130.169 110.099C130.104 110.51 130.12 110.929 130.217 111.333C130.315 111.755 130.243 112.199 130.015 112.568C129.786 112.937 129.421 113.201 128.999 113.302C128.577 113.403 128.132 113.334 127.761 113.108C127.39 112.882 127.124 112.519 127.02 112.098C126.82 111.275 126.786 110.42 126.919 109.584C127.052 108.747 127.35 107.945 127.796 107.224C127.904 107.046 128.02 106.875 128.145 106.709Z" fill="#292A2E"/>
</g>
<defs>
<clipPath id="clip0_83_118">
<rect width="245" height="289" fill="white"/>
</clipPath>
</defs>
</svg>
